# xmcd
#
# Track frame offsets:
#	150
#	14835
#	31420
#	50117
#	65337
#	82842
#	99805
#	115577
#	127730
#	142292
#	154737
#	170502
#	186330
#	197187
#	211902
#	225110
#	242187
#	258635
#	276400
#	294032
#	308717
#
# Disc length: 4319
#
# Revision: 2
# Processed by: cddbd v1.5.1PL0 Copyright (c) Steve Scherf et al.
# Submitted via: audiograbber 1.82.02
# Normalized: r1:DSETVAR1
#
DISCID=2710dd15
DTITLE=Various Artist - GoldDisc 2012
DYEAR=1980
DGENRE=Country
TTITLE0=Alabama - Song Of The South
TTITLE1=Jo-El Sonnier - Tear-Stained Letter
TTITLE2=Michael Johnson - That's That
TTITLE3=Conway Twitty - Saturday Night Special
TTITLE4=Balllie And The Boys - Wilder Days
TTITLE5=The Bellamy Brothers - Santa Fe
TTITLE6=Charlie Daniels Band - Boogie Woogie Fiddle Country Blues
TTITLE7=Sawyer Brown - This Missin' You Heart Of Mine
TTITLE8=Charley Pride - Shouldn't It Be Easier Than This?
TTITLE9=Sweethears Of The Rodeo - Satisfy You
TTITLE10=Skip Ewing - I Don't Have Far To Fall
TTITLE11=T. Graham Brown - The Last Resort
TTITLE12=Ronnie McDowell - It's Only Make Believe
TTITLE13=Eddie Rabbitt - I Wanna Dance With You
TTITLE14=Barbara Mandrell - I Wish That I Could Fall In Love Today
TTITLE15=Schuyler, Knobloc and Bickhardt - Givers and Takers
TTITLE16=George Strait - Famous Last Words Of A Fool
TTITLE17=Ronnie Milsap - Button Off My Shirt
TTITLE18=Vern Gosdin - Chiseled In Stone
TTITLE19=Holly Dunn - Strangers Again
TTITLE20=Shenandoah - Mama Knows
EXTD=
EXTT0=
EXTT1=
EXTT2=
EXTT3=
EXTT4=
EXTT5=
EXTT6=
EXTT7=
EXTT8=
EXTT9=
EXTT10=
EXTT11=
EXTT12=
EXTT13=
EXTT14=
EXTT15=
EXTT16=
EXTT17=
EXTT18=
EXTT19=
EXTT20=
PLAYORDER=
